<svg version="1.2" xmlns="http://www.w3.org/2000/svg" viewBox="0 0 423 334" width="423" height="334">
	<style>
		.s0 { fill: #ffffff;stroke: #b43535;stroke-linecap: round;stroke-linejoin: round;stroke-width: 15 } 
		.s1 { fill: #b43434;stroke: #b43535;stroke-linecap: round;stroke-linejoin: round;stroke-width: 15 } 
		.s2 { fill: #ffffff;stroke: #ffffff;stroke-linecap: round;stroke-linejoin: round;stroke-width: 10 } 
		.s3 { fill: #b43535;stroke: #b43535;stroke-linecap: round;stroke-linejoin: round;stroke-width: 15 } 
		.s4 { fill: #b43535;stroke: #ffffff;stroke-linecap: round;stroke-linejoin: round;stroke-width: 15 } 
	</style>
	<path class="s0" d="m58 95h307.9c12.2 0 22 9.8 22 22v187.6c0 12.1-9.8 22-22 22h-307.9c-12.2 0-22-9.9-22-22v-187.6c0-12.2 9.8-22 22-22z"/>
	<path fill-rule="evenodd" class="s0" d="m254 261v24c0 4.4-3.6 8-8 8h-68c-4.4 0-8-3.6-8-8v-24c0-4.4 3.6-8 8-8h68c4.4 0 8 3.6 8 8z"/>
	<path fill-rule="evenodd" class="s1" d="m212 46c-10.5 0-19-8.5-19-19 0-10.5 8.5-19 19-19 10.5 0 19 8.5 19 19 0 10.5-8.5 19-19 19z"/>
	<path fill-rule="evenodd" class="s0" d="m212 50v44"/>
	<path class="s2" d="m207 13c0 0-7.3-1-12 10"/>
	<path fill-rule="evenodd" class="s0" d="m16 171h11c4.4 0 8 3.6 8 8v76c0 4.4-3.6 8-8 8h-11c-4.4 0-8-3.6-8-8v-76c0-4.4 3.6-8 8-8z"/>
	<path fill-rule="evenodd" class="s0" d="m396 171h11c4.4 0 8 3.6 8 8v76c0 4.4-3.6 8-8 8h-11c-4.4 0-8-3.6-8-8v-76c0-4.4 3.6-8 8-8z"/>
	<path class="s3" d="m190 163h42"/>
	<path class="s3" d="m41 153h132c0 0 20.1-1.2 16 25-4.1 26.2-27 55.3-66 51-39-4.3-53.5-65.2-42-71 11.5-5.8-40-5-40-5zm0 0h132c0 0 20.1-1.2 16 25-4.1 26.2-27 55.3-66 51-39-4.3-53.5-65.2-42-71 11.5-5.8-40-5-40-5z"/>
	<path class="s3" d="m382.6 153h-132c0 0-20.2-1.2-16 25 4.1 26.2 26.9 55.3 66 51 39-4.3 53.4-65.2 42-71-11.5-5.8 40-5 40-5zm0 0h-132c0 0-20.2-1.2-16 25 4.1 26.2 26.9 55.3 66 51 39-4.3 53.4-65.2 42-71-11.5-5.8 40-5 40-5z"/>
	<path class="s3" d="m146 177v26m131-24v26"/>
	<path id="Shape 1" fill-rule="evenodd" class="s4" d="m162 168v39h-39v-39z"/>
	<path id="Shape 1 copy" fill-rule="evenodd" class="s4" d="m299 168v39h-39v-39z"/>
	<path id="Shape 2" class="s0" d="m131 116l45 18"/>
	<path id="Shape 2 copy" class="s0" d="m291 116l-45 18"/>
</svg>