<svg version="1.2" xmlns="http://www.w3.org/2000/svg" viewBox="0 0 423 334" width="423" height="334"><style>.a{fill:#fff;stroke:#2c8383;stroke-linecap:round;stroke-linejoin:round;stroke-width:15}.b{fill:#2f8484;stroke:#2c8383;stroke-linecap:round;stroke-linejoin:round;stroke-width:15}.c{fill:#2f8484;stroke:#fff;stroke-linecap:round;stroke-linejoin:round;stroke-width:10}.d{fill:#2c8383;stroke:#2c8383;stroke-linecap:round;stroke-linejoin:round;stroke-width:15}.e{fill:#fff;stroke:#fff;stroke-linecap:round;stroke-linejoin:round;stroke-width:15}</style><path class="a" d="m58 95h307.9c12.2 0 22 9.8 22 22v187.6c0 12.1-9.8 22-22 22h-307.9c-12.2 0-22-9.9-22-22v-187.6c0-12.2 9.8-22 22-22z"/><path fill-rule="evenodd" class="a" d="m254 261v24c0 4.4-3.6 8-8 8h-68c-4.4 0-8-3.6-8-8v-24c0-4.4 3.6-8 8-8h68c4.4 0 8 3.6 8 8z"/><path fill-rule="evenodd" class="b" d="m212 46c-10.5 0-19-8.5-19-19 0-10.5 8.5-19 19-19 10.5 0 19 8.5 19 19 0 10.5-8.5 19-19 19z"/><path fill-rule="evenodd" class="b" d="m212 50v44"/><path class="c" d="m207 13c0 0-7.3-1-12 10"/><path fill-rule="evenodd" class="a" d="m16 171h11c4.4 0 8 3.6 8 8v76c0 4.4-3.6 8-8 8h-11c-4.4 0-8-3.6-8-8v-76c0-4.4 3.6-8 8-8z"/><path fill-rule="evenodd" class="a" d="m396 171h11c4.4 0 8 3.6 8 8v76c0 4.4-3.6 8-8 8h-11c-4.4 0-8-3.6-8-8v-76c0-4.4 3.6-8 8-8z"/><path class="d" d="m190 163h42"/><path class="d" d="m41 153h132c0 0 20.1-1.2 16 25-4.1 26.2-27 55.3-66 51-39-4.3-53.5-65.2-42-71 11.5-5.8-40-5-40-5zm0 0h132c0 0 20.1-1.2 16 25-4.1 26.2-27 55.3-66 51-39-4.3-53.5-65.2-42-71 11.5-5.8-40-5-40-5z"/><path class="d" d="m382.6 153h-132c0 0-20.2-1.2-16 25 4.1 26.2 26.9 55.3 66 51 39-4.3 53.4-65.2 42-71-11.5-5.8 40-5 40-5zm0 0h-132c0 0-20.2-1.2-16 25 4.1 26.2 26.9 55.3 66 51 39-4.3 53.4-65.2 42-71-11.5-5.8 40-5 40-5z"/><path class="e" d="m146 177v26m131-24v26"/></svg>